<svg width="113" height="57" viewBox="0 0 113 57" fill="none" xmlns="http://www.w3.org/2000/svg">
<path d="M44.8945 38.3809C45.4288 38.381 45.8519 38.5607 46.1641 38.9141C46.487 39.2571 46.6465 39.7427 46.6465 40.376C46.6465 41.0092 46.4869 41.4999 46.1641 41.8535C45.8571 42.2068 45.4289 42.3866 44.8945 42.3867C44.36 42.3867 43.9363 42.207 43.624 41.8535C43.3117 41.4894 43.1582 40.9987 43.1582 40.376C43.1582 39.7533 43.3117 39.2676 43.624 38.9141C43.931 38.5606 44.36 38.3809 44.8945 38.3809Z" fill="#D60000"/>
<path d="M69.6787 38.376C70.1233 38.3761 70.4615 38.503 70.7686 38.751C71.0808 38.9937 71.2871 39.3209 71.3877 39.7324H67.8994C68.0106 39.3103 68.2227 38.9772 68.5352 38.7344L68.54 38.7402C68.8519 38.4975 69.2339 38.376 69.6787 38.376Z" fill="#D60000"/>
<path d="M91.5088 40.5918C91.8263 40.5919 92.0693 40.6773 92.2334 40.8408C92.4081 40.9991 92.4931 41.2044 92.4932 41.4893C92.4932 41.7743 92.4081 42.0015 92.2334 42.165C92.0693 42.3179 91.8314 42.3974 91.5088 42.3975V42.3916H90.1953V40.5918H91.5088Z" fill="#D60000"/>
<path d="M48.3828 20.0742C49.3619 20.0743 50.0976 20.3491 50.7539 20.8926C51.4313 21.4203 51.8818 22.1328 52.1094 23.0352H44.5078C44.7513 22.117 45.2118 21.3939 45.8945 20.8662V20.8604C46.5721 20.3327 47.4036 20.0742 48.3828 20.0742Z" fill="#D60000"/>
<path fill-rule="evenodd" clip-rule="evenodd" d="M94.5518 21.6309C94.933 21.6309 95.2883 21.7263 95.6113 21.9268C95.9447 22.122 96.2036 22.412 96.3994 22.7812C96.5953 23.1506 96.6963 23.5838 96.6963 24.0693C96.6963 24.5546 96.5952 24.9818 96.3994 25.3564C96.2035 25.7258 95.9449 26.0166 95.6113 26.2119C95.283 26.4071 94.8483 26.5068 94.5518 26.5068C94.2559 26.5068 93.9801 26.4495 93.7207 26.3281C93.4667 26.212 93.2714 26.0475 93.1338 25.8418H93.0859V28.1592H91.6777V21.7314H93.0059V22.3701H93.0537C93.1967 22.1379 93.4087 21.9581 93.6787 21.8262C93.9488 21.6889 94.2457 21.6201 94.5576 21.6201L94.5518 21.6309ZM94.1875 22.8398C93.8592 22.8398 93.5831 22.9447 93.3818 23.1611C93.186 23.3775 93.0909 23.6784 93.0908 24.0635C93.0908 24.4484 93.1862 24.7495 93.3818 24.9658C93.5831 25.1769 93.8592 25.2881 94.1875 25.2881C94.5151 25.288 94.769 25.1821 94.9648 24.9658C95.1607 24.7442 95.2559 24.4434 95.2559 24.0635C95.2558 23.6836 95.1554 23.3882 94.9648 23.1719C94.769 22.9504 94.5151 22.8399 94.1875 22.8398Z" fill="#D60000"/>
<path d="M98.1357 21.7363L99.459 24.6387H99.5068L100.646 21.7363H102.037L100.2 26.2061C99.9831 26.7337 99.7771 27.1352 99.5918 27.4043C99.4118 27.6787 99.2052 27.8741 98.9775 27.9902C98.7499 28.101 98.4536 28.1591 98.0938 28.1592H97.4961V26.8506H98.04C98.2042 26.8506 98.3423 26.8026 98.4482 26.7129C98.5594 26.6232 98.6491 26.4859 98.7285 26.3066L98.7822 26.1699L96.6162 21.7363H98.1357Z" fill="#D60000"/>
<path d="M18.4482 23.082C19.549 23.0821 20.3955 23.3148 20.9883 23.7686C21.5969 24.2065 21.9042 24.8446 21.9043 25.7363C21.9043 26.6281 21.6133 27.3039 21.0205 27.7578C20.4277 28.1958 19.591 28.4121 18.5059 28.4121H15.8965V23.082H18.4482Z" fill="#D60000"/>
<path d="M17.1084 15.2451C17.9816 15.2451 18.6593 15.4563 19.1357 15.873C19.6121 16.2741 19.8505 16.8338 19.8506 17.5566C19.8506 18.2796 19.6122 18.8713 19.1357 19.3252C18.6594 19.7629 17.9661 19.9794 17.0508 19.9795H15.9014V15.2451H17.1084Z" fill="#D60000"/>
<path fill-rule="evenodd" clip-rule="evenodd" d="M91.958 0C99.3208 0 103.006 -0.000324011 105.816 1.42969C108.289 2.68566 110.3 4.69145 111.565 7.16113C113 9.96342 113 13.6368 113 20.9775V36.0225C113 43.3632 113 47.0366 111.565 49.8389C110.306 52.3032 108.294 54.308 105.816 55.5693C103.006 56.9996 99.321 57 91.958 57H21.042C13.6788 57 9.99439 56.9996 7.18359 55.5693C4.71155 54.3132 2.69972 52.3086 1.43457 49.8389C4.12464e-05 47.0314 0 43.3635 0 36.0176V20.9775C0 13.6368 3.68357e-05 9.96342 1.43457 7.16113C2.69442 4.69672 4.70625 2.69094 7.18359 1.42969C9.99435 -0.000239134 13.6738 0 21.042 0H91.958ZM45.3018 36.9141C44.8412 36.9141 44.4126 37.0094 44.0156 37.21C43.6292 37.4052 43.3276 37.674 43.1211 38.0117H43.0576V37.0508H41.4746V46.2021H43.1475V42.8613H43.2109C43.4068 43.1621 43.698 43.4055 44.0791 43.585C44.4601 43.7695 44.7461 43.8594 45.3018 43.8594C45.8575 43.8594 46.3711 43.7166 46.8369 43.4316C47.3027 43.1467 47.6788 42.7396 47.9541 42.2119C48.2344 41.6844 48.372 41.0724 48.3721 40.3867C48.3721 39.7008 48.2292 39.0989 47.9541 38.5713C47.6788 38.0436 47.3027 37.6365 46.8369 37.3516C46.3658 37.0613 45.7622 36.9141 45.3018 36.9141ZM48.6787 37.083L51.7178 43.3945L51.5215 43.833C51.3997 44.123 51.2568 44.3289 51.0928 44.4502C50.9393 44.5821 50.7434 44.6455 50.5 44.6455H49.8271V46.1963H50.5264C51.0133 46.1963 51.4055 46.1179 51.7178 45.9648C52.03 45.8171 52.2994 45.5684 52.5322 45.2148C52.7757 44.8613 53.0352 44.3497 53.3105 43.6797L55.9365 37.083H54.2578L52.5537 41.5H52.4902L50.5 37.083H48.6787ZM69.668 36.9453C69.0274 36.9453 68.4135 37.0987 67.8682 37.3994C67.3334 37.7002 66.9046 38.1171 66.5869 38.6553C66.2745 39.183 66.1211 39.7692 66.1211 40.4131C66.1211 41.0568 66.2746 41.6477 66.5869 42.1807C66.8993 42.7084 67.3226 43.1201 67.8574 43.4209C68.3233 43.6794 68.8309 43.8273 69.3867 43.8643C69.8633 43.9223 70.3559 43.8798 70.8271 43.7373C71.6424 43.4893 72.3351 42.9562 72.7852 42.2334L71.5518 41.4688C71.287 41.8906 70.8796 42.2019 70.4033 42.3496C70.2604 42.3918 70.1179 42.4178 69.9697 42.4336H69.7422C69.4776 42.423 69.2126 42.3656 68.9639 42.2549C68.5833 42.0808 68.265 41.7958 68.0479 41.4424C67.9737 41.2841 67.9204 41.1148 67.8887 40.9248H73.1143V40.5498C73.1142 39.8269 72.9598 39.1939 72.6475 38.6504C72.3457 38.1017 71.9331 37.6793 71.4043 37.3838C70.8855 37.0883 70.308 36.9454 69.668 36.9453ZM30.8984 36.9033C30.2422 36.9033 29.644 37.0567 29.1094 37.3574C28.5748 37.6582 28.1512 38.0804 27.8389 38.6133C27.5266 39.1357 27.373 39.722 27.373 40.3711C27.3731 41.02 27.5266 41.6107 27.8389 42.1436C28.1459 42.6713 28.5747 43.0888 29.1094 43.3896C29.6438 43.6902 30.11 43.8428 30.8984 43.8428C31.687 43.8427 32.3754 43.6321 32.9629 43.21C33.1693 43.0622 33.349 42.9036 33.5078 42.7295L32.3535 41.5791L32.3486 41.584C32.211 41.8267 32.0153 42.0171 31.7666 42.1543C31.5179 42.2862 31.438 42.3496 30.8984 42.3496C30.3585 42.3496 29.9237 42.17 29.585 41.8164C29.2569 41.4576 29.0928 40.977 29.0928 40.3809C29.0928 39.7847 29.2569 39.3096 29.585 38.9561C29.9237 38.5919 30.3638 38.4131 30.8984 38.4131C31.2265 38.4131 31.5179 38.481 31.7666 38.6182C32.0259 38.7554 32.2163 38.9407 32.3486 39.1729L33.5078 38.0166C33.3543 37.8425 33.1738 37.6796 32.9727 37.5371C32.3852 37.1151 31.5547 36.9034 30.8984 36.9033ZM56.916 37.0879V43.7432H58.583V39.3789H58.6465L60.4893 42.4873H61.5791L63.4219 39.3789H63.4854V43.7432H65.1367V37.0879H63.2939L61.0713 40.8564H61.0068L58.8105 37.0879H56.916ZM74.2627 37.0879V43.7432H75.9355V41.1416H78.8467V43.7432H80.5088V37.0879H78.8467V39.6533H75.9355V37.0879H74.2627ZM81.4512 37.083V38.5869H83.6318V43.7432H85.2939V38.5869H87.4912V37.083H81.4512ZM88.5498 37.0879V43.7432H91.5879C92.4351 43.7431 93.0861 43.5317 93.5361 43.1201C93.9967 42.698 94.2246 42.1436 94.2246 41.4893C94.2246 40.835 93.9968 40.3016 93.5361 39.8848C93.0861 39.4626 92.435 39.252 91.5879 39.252H90.2217V37.0879H88.5498ZM94.9805 37.0879V43.7432H96.6436V37.0879H94.9805ZM11.9688 37.0566V43.7109H13.9697L16.7227 39.1514H16.7861V43.7109H18.4482V37.0566H16.4473L13.6943 41.627H13.6309V37.0566H11.9688ZM19.9727 37.0508V43.7061H21.6504V41.1045H24.5615V43.7061H26.2236V37.0508H24.5615V39.6162H21.6504V37.0508H19.9727ZM34.2334 37.0459V38.5498H36.4141V43.7061H38.0762V38.5498H40.2725V37.0459H34.2334ZM48.3564 16.9395C46.9643 16.9395 45.6144 17.2672 44.4287 17.9268C43.2588 18.5864 42.3263 19.4939 41.6328 20.6602C40.9554 21.8052 40.6172 23.0824 40.6172 24.4912C40.6172 25.9001 40.9555 27.1877 41.6328 28.3486C42.3104 29.4938 43.2369 30.397 44.4014 31.0566C45.3965 31.6055 46.4821 31.922 47.6572 32.0117C48.7265 32.1489 49.8224 32.0637 50.8652 31.7471C52.6385 31.2088 54.1576 30.0429 55.1318 28.4756L52.4424 26.8135C51.8708 27.7315 50.9816 28.4119 49.9443 28.7285C49.632 28.8235 49.3137 28.8769 48.9961 28.9033V28.8926C48.8322 28.9084 48.6631 28.9141 48.4834 28.9141C47.9064 28.893 47.3344 28.7661 46.7998 28.5234C45.9635 28.1487 45.2695 27.5208 44.8037 26.7451C44.6502 26.4074 44.5292 26.0317 44.4551 25.6201H55.8672V24.8027C55.8672 23.225 55.5292 21.8422 54.8516 20.6602C54.1897 19.457 53.2893 18.538 52.1406 17.8994C51.008 17.2611 49.7483 16.9395 48.3564 16.9395ZM34.9268 16.9082C33.4923 16.9082 32.1952 17.235 31.0254 17.8945C29.8557 18.5541 28.9344 19.4618 28.2568 20.6279C27.5793 21.7731 27.2402 23.0509 27.2402 24.46C27.2403 25.8688 27.5793 27.1565 28.2568 28.3174C28.9344 29.4678 29.8556 30.3648 31.0254 31.0244C32.1952 31.684 33.2118 32.0117 34.9268 32.0117C36.6417 32.0117 38.14 31.5524 39.4209 30.6289C39.8708 30.3123 40.2677 29.9639 40.6064 29.584L38.0977 27.082H38.0869C37.7852 27.6097 37.3615 28.0214 36.8164 28.3223C36.2659 28.6019 36.0907 28.7451 34.9209 28.7451C33.7512 28.7451 32.8041 28.3592 32.0684 27.5889C31.3485 26.7974 30.9932 25.7527 30.9932 24.46C30.9932 23.167 31.3537 22.1318 32.0684 21.3613C32.804 20.5754 33.7514 20.1797 34.9209 20.1797C35.6408 20.1797 36.2712 20.3271 36.8164 20.6279C37.3827 20.9287 37.8064 21.3352 38.0869 21.8418L40.6064 19.3301C40.273 18.9554 39.8866 18.6067 39.4473 18.29C38.1663 17.3666 36.3612 16.9083 34.9268 16.9082ZM97.5322 17.2617C93.5249 16.6128 89.7562 19.325 89.1055 23.3145C88.4542 27.3093 91.1752 31.0667 95.1768 31.7158C99.1841 32.3649 102.953 29.6526 103.604 25.6631C104.255 21.6735 101.534 17.9108 97.5322 17.2617ZM11.958 11.8574V31.8057H18.6807C20.184 31.8057 21.4864 31.5625 22.5928 31.0664C23.699 30.5704 24.5357 29.8896 25.1074 29.0137C25.6948 28.143 25.9912 27.3723 25.9912 26.0215C25.9912 24.6706 25.5832 23.5625 24.7627 22.6865C23.9423 21.7948 22.7939 21.2506 21.3066 21.0605V20.9238C22.0845 20.5281 22.7141 19.974 23.1904 19.2725C23.6668 18.5495 23.9052 17.7418 23.9053 16.792C23.9053 15.8421 23.6411 14.9917 23.1064 14.2529C22.593 13.4931 21.8464 12.9022 20.8779 12.4854C19.9252 12.0684 18.8027 11.8575 17.5059 11.8574H11.958Z" fill="#D60000"/>
</svg>
